<svg width="21" height="19" viewBox="0 0 21 19" fill="none" xmlns="http://www.w3.org/2000/svg">
<path d="M9.40405 0.612343C9.7478 -0.204115 10.9186 -0.204114 11.2623 0.612346L13.2911 5.43123C13.4361 5.77543 13.7637 6.01061 14.1398 6.0404L19.4058 6.45748C20.2981 6.52814 20.6598 7.62813 19.9801 8.2034L15.968 11.5987C15.6814 11.8412 15.5562 12.2218 15.6437 12.5843L16.8695 17.661C17.0772 18.5211 16.1301 19.201 15.3662 18.7401L10.8577 16.0196C10.5357 15.8252 10.1307 15.8252 9.80865 16.0196L5.30016 18.7401C4.53629 19.201 3.58913 18.5211 3.79681 17.661L5.0226 12.5843C5.11015 12.2218 4.985 11.8412 4.69843 11.5987L0.686238 8.2034C0.0064579 7.62813 0.368244 6.52814 1.26047 6.45748L6.52653 6.0404C6.90268 6.01061 7.23033 5.77543 7.37524 5.43123L9.40405 0.612343Z" fill="black"/>
</svg>
